<?xml version="1.0" encoding="utf-8"?>
<!-- Generator: Adobe Illustrator 28.0.0, SVG Export Plug-In . SVG Version: 6.00 Build 0)  -->
<svg version="1.1" id="Laag_2_00000048502260603089491930000002916257116013347724_"
	 xmlns="http://www.w3.org/2000/svg" xmlns:xlink="http://www.w3.org/1999/xlink" x="0px" y="0px" viewBox="0 0 377.2 148.1"
	 style="enable-background:new 0 0 377.2 148.1;" xml:space="preserve">
<style type="text/css">
	.st0{fill:#BCEA91;}
</style>
<g>
	<g>
		<g>
			<path class="st0" d="M0,78.2V0h14.2v30.9c2.4-3.7,8.1-7.2,16.1-7.2c15.6,0,24.5,11.9,24.5,27.7s-10,28-25.2,28
				c-7.3,0-12.9-3.2-15.8-7.8v6.5H0z M27.2,36.6c-7.2,0-13.2,5.3-13.2,15s6.1,15.1,13.2,15.1s13.2-5.4,13.2-15.1
				S34.6,36.6,27.2,36.6z"/>
			<path class="st0" d="M66.1,78.2V0h14.3v78.2H66.1L66.1,78.2z"/>
			<path class="st0" d="M143.5,63.1c-2.7,9.2-11.2,16.9-24.2,16.9c-14.7,0-27.4-10.5-27.4-28.4c0-16.9,12.6-28,26.1-28
				c16.4,0,26.3,10.5,26.3,27.6c0,2.1-0.2,4.3-0.2,4.5h-38.2c0.3,7,6.2,12.1,13.4,12.1c6.7,0,10.4-3.3,12.1-8.1L143.5,63.1
				L143.5,63.1z M130.1,45.7c-0.2-5.3-3.7-10.5-11.9-10.5c-7.5,0-11.6,5.6-11.9,10.5H130.1L130.1,45.7z"/>
			<path class="st0" d="M170,78.2h-14.3v-53h14v6.5c3.2-5.6,9.6-8,15.3-8c13.2,0,19.3,9.4,19.3,21v33.5h-14.3V47.3
				c0-5.9-2.9-10.7-9.9-10.7c-6.2,0-9.9,4.8-9.9,11v30.6H170z"/>
			<path class="st0" d="M269.4,68.7c0,3.5,0.2,7.5,0.5,9.6h-13.7c-0.2-1.1-0.5-3.7-0.5-6.2c-2.4,4.3-7.8,7.5-15,7.5
				c-15.1,0-26-11.9-26-28s10.5-27.7,25.5-27.7c9.2,0,13.5,3.8,15,6.5V0h14.2V68.7L269.4,68.7z M242.3,66.7
				c7.3,0,13.1-5.6,13.1-15.3s-5.7-14.8-13.1-14.8c-7.3,0-13.2,5.4-13.2,15S234.8,66.7,242.3,66.7L242.3,66.7z"/>
			<path class="st0" d="M332.6,63.1c-2.7,9.2-11.2,16.9-24.2,16.9C293.7,80,281,69.5,281,51.6c0-16.9,12.6-28,26.1-28
				c16.4,0,26.3,10.5,26.3,27.6c0,2.1-0.2,4.3-0.2,4.5h-38.1c0.3,7,6.2,12.1,13.4,12.1c6.7,0,10.4-3.3,12.1-8.1L332.6,63.1
				L332.6,63.1z M319.2,45.7c-0.2-5.3-3.7-10.5-11.9-10.5c-7.5,0-11.6,5.6-11.9,10.5H319.2L319.2,45.7z"/>
			<path class="st0" d="M377,39.3c-1.6-0.3-3-0.5-4.3-0.5c-7.3,0-13.7,3.5-13.7,15v24.4h-14.3v-53h14V33c3.2-7,10.5-8.3,15.1-8.3
				c1.3,0,2.2,0.2,3.3,0.2L377,39.3L377,39.3z"/>
		</g>
	</g>
</g>
<g>
	<path class="st0" d="M22.1,114.9c-1.2-0.2-2.3-0.2-3.4-0.2c-6.5,0-10.9,3.5-10.9,12.3v20H0V107h7.6v7c2.9-6.1,7.9-7.6,11.9-7.6
		c1.1,0,2.2,0.2,2.6,0.2V114.9z"/>
	<path class="st0" d="M58.3,124.1l10.8-1.6c2.4-0.3,3.1-1.6,3.1-3c0-3.9-2.6-7.1-8.6-7.1c-5.5,0-8.5,3.4-9,8l-7.5-1.7
		c0.8-7.6,7.7-12.9,16.3-12.9c11.9,0,16.6,6.8,16.6,14.6v20c0,3.5,0.3,5.6,0.5,6.5h-7.6c-0.2-1-0.4-2.5-0.4-5.4
		c-1.7,2.8-5.7,6.6-12.8,6.6c-8.1,0-13.3-5.6-13.3-11.9C46.2,129.1,51.4,125.1,58.3,124.1z M72.1,129.8V128L60,129.8
		c-3.3,0.5-5.8,2.4-5.8,6c0,3,2.5,5.8,6.5,5.8C67,141.6,72.1,138.5,72.1,129.8z"/>
	<path class="st0" d="M138.2,140.8c-1.9,3.8-6.1,7.1-12.3,7.1c-11.7,0-18.9-9.3-18.9-21.1c0-11.3,7.6-20.9,18.9-20.9
		c7,0,10.9,3.5,12.2,6.7V86.9h7.7v52.6c0,3.8,0.3,6.7,0.4,7.4h-7.5c-0.2-0.9-0.4-3-0.4-5.4V140.8z M126.6,141.1
		c7.1,0,11.5-6.2,11.5-14.4s-4.3-13.8-11.4-13.8c-7.1,0-11.8,5.8-11.8,14C115,135,119.2,141.1,126.6,141.1z"/>
	<path class="st0" d="M181.1,86.3c3.1,0,5.6,2.5,5.6,5.6c0,3.1-2.5,5.6-5.6,5.6c-3.1,0-5.5-2.5-5.5-5.6
		C175.6,88.8,178.1,86.3,181.1,86.3z M177.3,146.9V107h7.7v39.8H177.3z"/>
	<path class="st0" d="M254,126.9c0,12.2-8.4,21.2-20.4,21.2c-11.9,0-20.4-9-20.4-21.2c0-12.1,8.4-21.1,20.4-21.1
		C245.6,105.8,254,114.8,254,126.9z M246.1,126.9c0-9.2-5.8-14.2-12.4-14.2c-6.6,0-12.4,5-12.4,14.2c0,9.3,5.8,14.2,12.4,14.2
		C240.3,141.2,246.1,136.2,246.1,126.9z"/>
</g>
</svg>
