<?xml version="1.0" encoding="UTF-8"?>
<svg id="Laag_2" data-name="Laag 2" xmlns="http://www.w3.org/2000/svg" viewBox="0 0 1121.45 176.56">
  <defs>
    <style>
      .cls-1 {
        fill: #33333a;
      }
    </style>
  </defs>
  <g id="Laag_1-2" data-name="Laag 1">
    <g>
      <path class="cls-1" d="M238.83,80.94V29.55h14.99v5.89c2.58-4.55,9.2-7.44,14.79-7.44,7.34,0,12.61,3,15.2,8.06,4.03-5.79,9-8.06,15.92-8.06,9.72,0,19.02,5.69,19.02,19.64v33.29h-15.2v-29.78c0-4.86-2.58-8.69-8.17-8.69s-8.58,4.24-8.58,8.79v29.67h-15.51v-29.78c0-4.86-2.58-8.69-8.27-8.69s-8.48,4.24-8.48,8.89v29.57h-15.72Z"/>
      <path class="cls-1" d="M378.71,66.15c-2.48,8.89-10.65,16.34-23.68,16.34-14.16,0-26.78-10.13-26.78-27.4s12.3-27.09,25.64-27.09c15.92,0,25.75,9.82,25.75,26.37,0,2.17-.21,4.55-.31,4.86h-35.77c.31,5.79,5.58,9.93,11.68,9.93,5.69,0,8.89-2.69,10.34-6.72l13.13,3.72ZM364.44,49.09c-.21-3.93-2.9-8.69-10.34-8.69-6.62,0-9.93,4.86-10.24,8.69h20.58Z"/>
      <path class="cls-1" d="M436.51,66.15c-2.48,8.89-10.65,16.34-23.68,16.34-14.16,0-26.78-10.13-26.78-27.4s12.3-27.09,25.64-27.09c15.92,0,25.75,9.82,25.75,26.37,0,2.17-.21,4.55-.31,4.86h-35.77c.31,5.79,5.58,9.93,11.68,9.93,5.69,0,8.89-2.69,10.34-6.72l13.13,3.72ZM422.24,49.09c-.21-3.93-2.9-8.69-10.34-8.69-6.62,0-9.93,4.86-10.24,8.69h20.58Z"/>
      <path class="cls-1" d="M480.24,45.06c-1.76-.41-3.41-.52-4.96-.52-6.31,0-11.99,3.72-11.99,13.96v22.44h-15.72V29.55h15.2v6.93c2.69-5.79,9.2-7.44,13.34-7.44,1.55,0,3.1.21,4.14.52v15.51Z"/>
      <path class="cls-1" d="M565.22,71.74c0,4.65.31,8.06.41,9.2h-15.1c-.1-.62-.41-2.9-.41-4.96-2.38,3.52-7.55,6.1-13.75,6.1-14.47,0-25.43-11.17-25.43-26.99s10.34-26.78,24.92-26.78c8.79,0,12.61,3.31,13.85,5.27V6.08h15.51v65.65ZM538.34,68.02c6.1,0,11.58-4.34,11.58-12.82s-5.48-12.72-11.58-12.72-11.58,4.14-11.58,12.72,5.48,12.82,11.58,12.82Z"/>
      <path class="cls-1" d="M590.97,51.27l12.1-1.86c2.79-.41,3.72-1.76,3.72-3.52,0-3-2.58-5.58-7.55-5.58-5.48,0-8.48,3.72-8.79,7.55l-13.65-2.79c.62-7.34,7.44-17.06,22.54-17.06,16.65,0,22.75,9.31,22.75,19.85v25.12c0,4.03.52,7.44.62,7.96h-14.17c-.1-.41-.52-2.27-.52-5.79-2.69,4.34-7.65,7.24-14.47,7.24-11.27,0-17.78-7.44-17.78-15.61,0-9.1,6.72-14.27,15.2-15.51ZM606.79,60.78v-2.27l-9.72,1.55c-3.31.52-5.79,2.07-5.79,5.69,0,2.69,1.76,5.27,6.1,5.27,4.65,0,9.41-2.27,9.41-10.24Z"/>
      <path class="cls-1" d="M651.04,80.94h-15.72V29.55h15.2v5.89c2.79-4.86,9.1-7.24,14.37-7.24,12.92,0,18.71,9.2,18.71,20.47v32.26h-15.72v-29.57c0-5.07-2.69-8.89-8.38-8.89-5.17,0-8.48,3.83-8.48,9v29.47Z"/>
      <path class="cls-1" d="M737.28,92.65v-58.88h-21.63v-14.65c13.53-.14,23.16-7.81,24.7-17.02h18.84v90.56h-21.91Z"/>
      <path class="cls-1" d="M784.16,15.49c6-9.07,16.05-15.49,30.7-15.49s24.84,6.42,30.84,15.49c6.28,9.49,7.95,20.79,7.95,31.95s-1.68,22.46-7.95,31.95c-6,8.93-16.05,15.49-30.84,15.49s-24.7-6.56-30.7-15.49c-6.28-9.49-7.95-20.79-7.95-31.95s1.68-22.46,7.95-31.95ZM801.6,67.11c2.51,5.02,6.56,8.37,13.26,8.37s10.74-3.35,13.26-8.37c2.65-5.3,3.49-12.42,3.49-19.67s-.84-14.37-3.49-19.67c-2.51-5.02-6.42-8.37-13.26-8.37s-10.74,3.35-13.26,8.37c-2.51,5.3-3.35,12.42-3.35,19.67s.84,14.37,3.35,19.67Z"/>
      <path class="cls-1" d="M871.64,15.49c6-9.07,16.05-15.49,30.7-15.49s24.84,6.42,30.84,15.49c6.28,9.49,7.95,20.79,7.95,31.95s-1.67,22.46-7.95,31.95c-6,8.93-16.05,15.49-30.84,15.49s-24.7-6.56-30.7-15.49c-6.28-9.49-7.95-20.79-7.95-31.95s1.68-22.46,7.95-31.95ZM889.09,67.11c2.51,5.02,6.56,8.37,13.26,8.37s10.74-3.35,13.26-8.37c2.65-5.3,3.49-12.42,3.49-19.67s-.84-14.37-3.49-19.67c-2.51-5.02-6.42-8.37-13.26-8.37s-10.74,3.35-13.26,8.37c-2.51,5.3-3.35,12.42-3.35,19.67s.84,14.37,3.35,19.67Z"/>
      <path class="cls-1" d="M15.61,149.37c0,8.17,5.48,12.72,11.99,12.72,6.1,0,9.51-3.83,10.65-7.65l13.85,4.24c-2.27,9-10.75,17.89-24.5,17.89-15.3,0-27.61-11.27-27.61-27.19s11.99-27.3,27.09-27.3c14.17,0,22.44,8.69,24.71,17.89l-14.06,4.24c-1.14-3.93-4.24-7.65-10.34-7.65-6.51,0-11.79,4.55-11.79,12.82Z"/>
      <path class="cls-1" d="M94.4,139.13c-1.76-.41-3.41-.52-4.96-.52-6.31,0-11.99,3.72-11.99,13.96v22.44h-15.72v-51.39h15.2v6.93c2.69-5.79,9.2-7.44,13.34-7.44,1.55,0,3.1.21,4.14.52v15.51Z"/>
      <path class="cls-1" d="M150.02,160.22c-2.48,8.89-10.65,16.34-23.68,16.34-14.17,0-26.78-10.13-26.78-27.4s12.3-27.09,25.64-27.09c15.92,0,25.75,9.82,25.75,26.37,0,2.17-.21,4.55-.31,4.86h-35.77c.31,5.79,5.58,9.93,11.68,9.93,5.69,0,8.89-2.69,10.34-6.72l13.13,3.72ZM135.75,143.16c-.21-3.93-2.9-8.69-10.34-8.69-6.62,0-9.93,4.86-10.24,8.69h20.58Z"/>
      <path class="cls-1" d="M173.18,145.33l12.1-1.86c2.79-.41,3.72-1.76,3.72-3.52,0-3-2.58-5.58-7.55-5.58-5.48,0-8.48,3.72-8.79,7.55l-13.65-2.79c.62-7.34,7.44-17.06,22.54-17.06,16.65,0,22.75,9.31,22.75,19.85v25.12c0,4.03.52,7.44.62,7.96h-14.17c-.1-.41-.52-2.27-.52-5.79-2.69,4.34-7.65,7.24-14.48,7.24-11.27,0-17.78-7.44-17.78-15.61,0-9.1,6.72-14.27,15.2-15.51ZM189,154.85v-2.27l-9.72,1.55c-3.31.52-5.79,2.07-5.79,5.69,0,2.69,1.76,5.27,6.1,5.27,4.65,0,9.41-2.27,9.41-10.24Z"/>
      <path class="cls-1" d="M235.83,123.62h10.03v13.75h-10.03v19.23c0,4.24,2.27,5.38,5.69,5.38,1.65,0,3.21-.31,4.14-.52v13.03c-.62.31-3.21,1.45-8.17,1.45-10.65,0-17.16-6.31-17.16-16.54v-22.02h-9.1v-13.75h2.58c5.38,0,7.96-3.62,7.96-8.38v-6.62h14.06v14.99Z"/>
      <path class="cls-1" d="M264.78,98.7c5.17,0,9.31,4.14,9.31,9.2s-4.14,9.2-9.31,9.2-9.1-4.14-9.1-9.2,4.14-9.2,9.1-9.2ZM257.02,175.01v-51.39h15.72v51.39h-15.72Z"/>
      <path class="cls-1" d="M333.22,160.22c-2.48,8.89-10.65,16.34-23.68,16.34-14.16,0-26.78-10.13-26.78-27.4s12.3-27.09,25.64-27.09c15.92,0,25.75,9.82,25.75,26.37,0,2.17-.21,4.55-.31,4.86h-35.77c.31,5.79,5.58,9.93,11.68,9.93,5.69,0,8.89-2.69,10.34-6.72l13.13,3.72ZM318.95,143.16c-.21-3.93-2.9-8.69-10.34-8.69-6.62,0-9.93,4.86-10.24,8.69h20.58Z"/>
      <path class="cls-1" d="M374.27,175.01h-15.82l-21.09-51.39h17.06l11.89,31.95,10.96-31.95h16.54l-19.54,51.39Z"/>
      <path class="cls-1" d="M446.95,160.22c-2.48,8.89-10.65,16.34-23.68,16.34-14.16,0-26.78-10.13-26.78-27.4s12.3-27.09,25.64-27.09c15.92,0,25.75,9.82,25.75,26.37,0,2.17-.21,4.55-.31,4.86h-35.77c.31,5.79,5.58,9.93,11.68,9.93,5.69,0,8.89-2.69,10.34-6.72l13.13,3.72ZM432.68,143.16c-.21-3.93-2.9-8.69-10.34-8.69-6.62,0-9.93,4.86-10.24,8.69h20.58Z"/>
      <path class="cls-1" d="M534.31,149.26c0,15.92-11.89,27.3-27.3,27.3s-27.3-11.37-27.3-27.3,11.99-27.19,27.3-27.19,27.3,11.27,27.3,27.19ZM518.6,149.26c0-8.69-5.58-12.72-11.58-12.72s-11.58,4.03-11.58,12.72,5.69,12.82,11.58,12.82,11.58-4.14,11.58-12.82Z"/>
      <path class="cls-1" d="M560.16,175.01h-15.72v-51.39h15.2v5.89c2.79-4.86,9.1-7.24,14.37-7.24,12.92,0,18.71,9.2,18.71,20.47v32.26h-15.72v-29.57c0-5.07-2.69-8.89-8.38-8.89-5.17,0-8.48,3.83-8.48,9v29.47Z"/>
      <path class="cls-1" d="M656.52,165.8c0,4.65.31,8.06.41,9.2h-15.1c-.1-.62-.41-2.9-.41-4.96-2.38,3.52-7.55,6.1-13.75,6.1-14.47,0-25.43-11.17-25.43-26.99s10.34-26.78,24.92-26.78c8.79,0,12.61,3.31,13.85,5.27v-27.5h15.51v65.65ZM629.63,162.08c6.1,0,11.58-4.34,11.58-12.82s-5.48-12.72-11.58-12.72-11.58,4.14-11.58,12.72,5.48,12.82,11.58,12.82Z"/>
      <path class="cls-1" d="M717.41,160.22c-2.48,8.89-10.65,16.34-23.68,16.34-14.17,0-26.78-10.13-26.78-27.4s12.3-27.09,25.64-27.09c15.92,0,25.75,9.82,25.75,26.37,0,2.17-.21,4.55-.31,4.86h-35.77c.31,5.79,5.58,9.93,11.68,9.93,5.69,0,8.89-2.69,10.34-6.72l13.13,3.72ZM703.14,143.16c-.21-3.93-2.89-8.69-10.34-8.69-6.62,0-9.93,4.86-10.24,8.69h20.58Z"/>
      <path class="cls-1" d="M761.14,139.13c-1.76-.41-3.41-.52-4.96-.52-6.31,0-11.99,3.72-11.99,13.96v22.44h-15.72v-51.39h15.2v6.93c2.69-5.79,9.2-7.44,13.34-7.44,1.55,0,3.1.21,4.14.52v15.51Z"/>
      <path class="cls-1" d="M786.37,175.01h-15.72v-51.39h15.2v5.89c2.79-4.86,9.1-7.24,14.37-7.24,12.92,0,18.71,9.2,18.71,20.47v32.26h-15.72v-29.57c0-5.07-2.69-8.89-8.38-8.89-5.17,0-8.48,3.83-8.48,9v29.47Z"/>
      <path class="cls-1" d="M878.9,160.22c-2.48,8.89-10.65,16.34-23.68,16.34-14.17,0-26.78-10.13-26.78-27.4s12.3-27.09,25.64-27.09c15.92,0,25.75,9.82,25.75,26.37,0,2.17-.21,4.55-.31,4.86h-35.77c.31,5.79,5.58,9.93,11.68,9.93,5.69,0,8.89-2.69,10.34-6.72l13.13,3.72ZM864.63,143.16c-.21-3.93-2.89-8.69-10.34-8.69-6.62,0-9.93,4.86-10.24,8.69h20.58Z"/>
      <path class="cls-1" d="M889.96,175.01v-51.39h14.99v5.89c2.58-4.55,9.2-7.44,14.79-7.44,7.34,0,12.61,3,15.2,8.06,4.03-5.79,9-8.06,15.92-8.06,9.72,0,19.02,5.69,19.02,19.64v33.29h-15.2v-29.78c0-4.86-2.58-8.69-8.17-8.69s-8.58,4.24-8.58,8.79v29.67h-15.51v-29.78c0-4.86-2.58-8.69-8.27-8.69s-8.48,4.24-8.48,8.89v29.57h-15.72Z"/>
      <path class="cls-1" d="M1029.85,160.22c-2.48,8.89-10.65,16.34-23.68,16.34-14.17,0-26.78-10.13-26.78-27.4s12.3-27.09,25.64-27.09c15.92,0,25.75,9.82,25.75,26.37,0,2.17-.21,4.55-.31,4.86h-35.77c.31,5.79,5.58,9.93,11.68,9.93,5.69,0,8.89-2.69,10.34-6.72l13.13,3.72ZM1015.58,143.16c-.21-3.93-2.89-8.69-10.34-8.69-6.62,0-9.93,4.86-10.24,8.69h20.58Z"/>
      <path class="cls-1" d="M1073.58,139.13c-1.76-.41-3.41-.52-4.96-.52-6.31,0-11.99,3.72-11.99,13.96v22.44h-15.72v-51.39h15.2v6.93c2.69-5.79,9.2-7.44,13.34-7.44,1.55,0,3.1.21,4.14.52v15.51Z"/>
      <path class="cls-1" d="M1092.6,158.05c.21,3.52,2.69,6.93,8.06,6.93,4.03,0,6-2.17,6-4.45,0-1.86-1.24-3.41-5.07-4.24l-5.89-1.34c-10.96-2.38-15.3-8.58-15.3-15.82,0-9.41,8.27-17.06,19.75-17.06,14.89,0,20.06,9.31,20.58,15.3l-13.03,2.38c-.41-3.41-2.58-6.31-7.34-6.31-3,0-5.58,1.76-5.58,4.45,0,2.17,1.76,3.41,4.03,3.83l6.82,1.34c10.65,2.17,15.82,8.58,15.82,16.13,0,8.79-6.72,17.37-20.47,17.37-16.13,0-21.3-10.44-21.71-16.13l13.34-2.38Z"/>
    </g>
  </g>
</svg>