<?xml version="1.0" encoding="UTF-8"?>
<svg id="Laag_2" data-name="Laag 2" xmlns="http://www.w3.org/2000/svg" viewBox="0 0 721.9 166.57">
  <defs>
    <style>
      .cls-1 {
        fill: #355f5a;
      }

      .cls-2 {
        fill: #33333a;
      }
    </style>
  </defs>
  <g id="Laag_1-2" data-name="Laag 1">
    <g>
      <path class="cls-2" d="M0,46.03V.95h16.34c13.54,0,22.63,8.65,22.63,22.57s-9.09,22.51-22.7,22.51H0ZM15.89,36.56c6.93,0,12.59-4.01,12.59-13.03s-5.66-13.1-12.59-13.1h-5.85v26.13h5.85Z"/>
      <path class="cls-2" d="M74.57,36.94c-1.53,5.47-6.55,10.05-14.56,10.05-8.71,0-16.47-6.23-16.47-16.85s7.57-16.66,15.77-16.66c9.79,0,15.83,6.04,15.83,16.21,0,1.34-.13,2.8-.19,2.99h-22c.19,3.56,3.43,6.1,7.18,6.1,3.5,0,5.47-1.65,6.36-4.13l8.07,2.29ZM65.8,26.45c-.13-2.42-1.78-5.34-6.36-5.34-4.07,0-6.1,2.99-6.29,5.34h12.65ZM62.5,10.68h-7.69l5.85-9.6h10.81l-8.96,9.6Z"/>
      <path class="cls-2" d="M104.33,30.26c0,5.02,3.37,7.82,7.37,7.82,3.75,0,5.85-2.35,6.55-4.7l8.52,2.61c-1.4,5.53-6.61,11-15.07,11-9.41,0-16.98-6.93-16.98-16.72s7.37-16.78,16.66-16.78c8.71,0,13.8,5.34,15.19,11l-8.65,2.61c-.7-2.42-2.61-4.7-6.36-4.7-4.01,0-7.25,2.8-7.25,7.88Z"/>
      <path class="cls-2" d="M152.2,42.85c-1.65,2.73-5.28,3.88-8.46,3.88-7.69,0-12.02-5.59-12.02-12.33V14.43h9.66v17.93c0,3.05,1.65,5.47,5.09,5.47,3.24,0,5.28-2.23,5.28-5.4V14.43h9.66v25.94c0,2.86.25,5.15.32,5.66h-9.28c-.13-.57-.25-2.35-.25-3.18Z"/>
      <path class="cls-2" d="M169.94,46.03V0h9.66v46.03h-9.66Z"/>
      <path class="cls-2" d="M199.69,14.43h6.17v8.46h-6.17v11.83c0,2.61,1.4,3.31,3.5,3.31,1.02,0,1.97-.19,2.54-.32v8.01c-.38.19-1.97.89-5.02.89-6.55,0-10.55-3.88-10.55-10.17v-13.54h-5.59v-8.46h1.59c3.31,0,4.9-2.23,4.9-5.15v-4.07h8.65v9.22Z"/>
      <path class="cls-2" d="M233.13,42.85c-1.65,2.73-5.28,3.88-8.46,3.88-7.69,0-12.02-5.59-12.02-12.33V14.43h9.66v17.93c0,3.05,1.65,5.47,5.09,5.47,3.24,0,5.28-2.23,5.28-5.4V14.43h9.66v25.94c0,2.86.25,5.15.32,5.66h-9.28c-.13-.57-.25-2.35-.25-3.18Z"/>
      <path class="cls-2" d="M270.96,23.97c-1.08-.25-2.1-.32-3.05-.32-3.88,0-7.37,2.29-7.37,8.58v13.8h-9.66V14.43h9.35v4.26c1.65-3.56,5.66-4.58,8.2-4.58.95,0,1.91.13,2.54.32v9.54Z"/>
      <path class="cls-2" d="M305.16,36.94c-1.53,5.47-6.55,10.05-14.56,10.05-8.71,0-16.47-6.23-16.47-16.85s7.57-16.66,15.77-16.66c9.79,0,15.83,6.04,15.83,16.21,0,1.34-.13,2.8-.19,2.99h-22c.19,3.56,3.43,6.1,7.18,6.1,3.5,0,5.47-1.65,6.36-4.13l8.07,2.29ZM296.39,26.45c-.13-2.42-1.78-5.34-6.36-5.34-4.07,0-6.1,2.99-6.29,5.34h12.65Z"/>
      <path class="cls-2" d="M311.96,46.03V0h9.66v46.03h-9.66Z"/>
      <path class="cls-2" d="M358.88,36.94c-1.53,5.47-6.55,10.05-14.56,10.05-8.71,0-16.47-6.23-16.47-16.85s7.57-16.66,15.77-16.66c9.79,0,15.83,6.04,15.83,16.21,0,1.34-.13,2.8-.19,2.99h-22c.19,3.56,3.43,6.1,7.18,6.1,3.5,0,5.47-1.65,6.36-4.13l8.07,2.29ZM350.11,26.45c-.13-2.42-1.78-5.34-6.36-5.34-4.07,0-6.1,2.99-6.29,5.34h12.65Z"/>
      <path class="cls-2" d="M386.92,35.6c.13,2.16,1.65,4.26,4.96,4.26,2.48,0,3.69-1.34,3.69-2.73,0-1.14-.76-2.1-3.12-2.61l-3.62-.83c-6.74-1.46-9.41-5.28-9.41-9.73,0-5.79,5.09-10.49,12.14-10.49,9.16,0,12.33,5.72,12.65,9.41l-8.01,1.46c-.25-2.1-1.59-3.88-4.51-3.88-1.84,0-3.43,1.08-3.43,2.73,0,1.34,1.08,2.1,2.48,2.35l4.2.83c6.55,1.34,9.73,5.28,9.73,9.92,0,5.4-4.13,10.68-12.59,10.68-9.92,0-13.1-6.42-13.35-9.92l8.2-1.46Z"/>
      <path class="cls-2" d="M430.85,42.85c-1.65,2.73-5.28,3.88-8.46,3.88-7.69,0-12.02-5.59-12.02-12.33V14.43h9.66v17.93c0,3.05,1.65,5.47,5.09,5.47,3.24,0,5.28-2.23,5.28-5.4V14.43h9.66v25.94c0,2.86.25,5.15.32,5.66h-9.28c-.13-.57-.25-2.35-.25-3.18Z"/>
      <path class="cls-2" d="M448.59,58.11V14.43h9.35v3.24c1.34-2.03,4.77-4.01,9.28-4.01,9.15,0,14.69,6.99,14.69,16.47s-6.23,16.59-15.07,16.59c-4.07,0-7.12-1.4-8.58-3.18v14.56h-9.66ZM465.25,22.38c-3.75,0-7.12,2.54-7.12,7.82s3.37,7.88,7.12,7.88,7.18-2.61,7.18-7.88-3.37-7.82-7.18-7.82Z"/>
      <path class="cls-2" d="M516.87,36.94c-1.53,5.47-6.55,10.05-14.56,10.05-8.71,0-16.47-6.23-16.47-16.85s7.57-16.66,15.77-16.66c9.79,0,15.83,6.04,15.83,16.21,0,1.34-.13,2.8-.19,2.99h-22c.19,3.56,3.43,6.1,7.18,6.1,3.5,0,5.47-1.65,6.36-4.13l8.07,2.29ZM508.1,26.45c-.13-2.42-1.78-5.34-6.36-5.34-4.07,0-6.1,2.99-6.29,5.34h12.65Z"/>
      <path class="cls-2" d="M543.76,23.97c-1.08-.25-2.1-.32-3.05-.32-3.88,0-7.38,2.29-7.38,8.58v13.8h-9.66V14.43h9.35v4.26c1.65-3.56,5.66-4.58,8.2-4.58.95,0,1.91.13,2.54.32v9.54Z"/>
      <path class="cls-2" d="M549.61,46.03V14.43h9.22v3.62c1.59-2.8,5.66-4.58,9.09-4.58,4.51,0,7.76,1.84,9.35,4.96,2.48-3.56,5.53-4.96,9.79-4.96,5.98,0,11.7,3.5,11.7,12.08v20.47h-9.35v-18.31c0-2.99-1.59-5.34-5.02-5.34s-5.28,2.61-5.28,5.4v18.25h-9.54v-18.31c0-2.99-1.59-5.34-5.09-5.34s-5.21,2.61-5.21,5.47v18.18h-9.66Z"/>
      <path class="cls-2" d="M614.33,27.78l7.44-1.14c1.72-.25,2.29-1.08,2.29-2.16,0-1.84-1.59-3.43-4.64-3.43-3.37,0-5.21,2.29-5.4,4.64l-8.39-1.72c.38-4.51,4.58-10.49,13.86-10.49,10.24,0,13.99,5.72,13.99,12.21v15.45c0,2.48.32,4.58.38,4.9h-8.71c-.06-.25-.32-1.4-.32-3.56-1.65,2.67-4.7,4.45-8.9,4.45-6.93,0-10.94-4.58-10.94-9.6,0-5.59,4.13-8.77,9.35-9.54ZM624.06,33.63v-1.4l-5.98.95c-2.03.32-3.56,1.27-3.56,3.5,0,1.65,1.08,3.24,3.75,3.24,2.86,0,5.79-1.4,5.79-6.29Z"/>
      <path class="cls-2" d="M661.69,23.97c-1.08-.25-2.1-.32-3.05-.32-3.88,0-7.38,2.29-7.38,8.58v13.8h-9.66V14.43h9.35v4.26c1.65-3.56,5.66-4.58,8.2-4.58.95,0,1.91.13,2.54.32v9.54Z"/>
      <path class="cls-2" d="M687,27.72l12.59,18.31h-11.83l-7.44-11.13-3.12,3.37v7.76h-9.66V0h9.66v25.05l9.6-10.62h12.52l-12.33,13.29Z"/>
      <path class="cls-2" d="M715.73,14.43h6.17v8.46h-6.17v11.83c0,2.61,1.4,3.31,3.5,3.31,1.02,0,1.97-.19,2.54-.32v8.01c-.38.19-1.97.89-5.02.89-6.55,0-10.55-3.88-10.55-10.17v-13.54h-5.59v-8.46h1.59c3.31,0,4.9-2.23,4.9-5.15v-4.07h8.65v9.22Z"/>
      <path class="cls-2" d="M68.25,107.32v-31.6h9.22v3.62c1.59-2.8,5.66-4.58,9.09-4.58,4.51,0,7.76,1.84,9.35,4.96,2.48-3.56,5.53-4.96,9.79-4.96,5.98,0,11.7,3.5,11.7,12.08v20.47h-9.35v-18.31c0-2.99-1.59-5.34-5.02-5.34s-5.28,2.61-5.28,5.4v18.25h-9.54v-18.31c0-2.99-1.59-5.34-5.09-5.34s-5.21,2.61-5.21,5.47v18.18h-9.66Z"/>
      <path class="cls-2" d="M154.27,98.23c-1.53,5.47-6.55,10.05-14.56,10.05-8.71,0-16.47-6.23-16.47-16.85s7.57-16.66,15.77-16.66c9.79,0,15.83,6.04,15.83,16.21,0,1.34-.13,2.8-.19,2.99h-22c.19,3.56,3.43,6.1,7.18,6.1,3.5,0,5.47-1.65,6.36-4.13l8.07,2.29ZM145.49,87.74c-.13-2.42-1.78-5.34-6.36-5.34-4.07,0-6.1,2.99-6.29,5.34h12.65Z"/>
      <path class="cls-2" d="M172.64,75.72h6.17v8.46h-6.17v11.83c0,2.61,1.4,3.31,3.5,3.31,1.02,0,1.97-.19,2.54-.32v8.01c-.38.19-1.97.89-5.02.89-6.55,0-10.55-3.88-10.55-10.17v-13.54h-5.59v-8.46h1.59c3.31,0,4.9-2.23,4.9-5.15v-4.07h8.65v9.22Z"/>
      <path class="cls-2" d="M200.99,107.32v-31.6h9.22v3.62c1.59-2.8,5.66-4.58,9.09-4.58,4.51,0,7.76,1.84,9.35,4.96,2.48-3.56,5.53-4.96,9.79-4.96,5.98,0,11.7,3.5,11.7,12.08v20.47h-9.35v-18.31c0-2.99-1.59-5.34-5.02-5.34s-5.28,2.61-5.28,5.4v18.25h-9.54v-18.31c0-2.99-1.59-5.34-5.09-5.34s-5.21,2.61-5.21,5.47v18.18h-9.66Z"/>
      <path class="cls-2" d="M287.01,98.23c-1.53,5.47-6.55,10.05-14.56,10.05-8.71,0-16.47-6.23-16.47-16.85s7.57-16.66,15.77-16.66c9.79,0,15.83,6.04,15.83,16.21,0,1.34-.13,2.8-.19,2.99h-22c.19,3.56,3.43,6.1,7.18,6.1,3.5,0,5.47-1.65,6.36-4.13l8.07,2.29ZM278.24,87.74c-.13-2.42-1.78-5.34-6.36-5.34-4.07,0-6.1,2.99-6.29,5.34h12.65Z"/>
      <path class="cls-2" d="M322.55,98.23c-1.53,5.47-6.55,10.05-14.56,10.05-8.71,0-16.47-6.23-16.47-16.85s7.57-16.66,15.77-16.66c9.79,0,15.83,6.04,15.83,16.21,0,1.34-.13,2.8-.19,2.99h-22c.19,3.56,3.43,6.1,7.18,6.1,3.5,0,5.47-1.65,6.36-4.13l8.07,2.29ZM313.78,87.74c-.13-2.42-1.78-5.34-6.36-5.34-4.07,0-6.1,2.99-6.29,5.34h12.65Z"/>
      <path class="cls-2" d="M349.44,85.26c-1.08-.25-2.1-.32-3.05-.32-3.88,0-7.38,2.29-7.38,8.58v13.8h-9.66v-31.6h9.35v4.26c1.65-3.56,5.66-4.58,8.2-4.58.95,0,1.91.13,2.54.32v9.54Z"/>
      <path class="cls-2" d="M401.7,101.66c0,2.86.19,4.96.25,5.66h-9.28c-.06-.38-.25-1.78-.25-3.05-1.46,2.16-4.64,3.75-8.46,3.75-8.9,0-15.64-6.87-15.64-16.59s6.36-16.47,15.32-16.47c5.4,0,7.76,2.03,8.52,3.24v-16.91h9.54v40.37ZM385.17,99.37c3.75,0,7.12-2.67,7.12-7.88s-3.37-7.82-7.12-7.82-7.12,2.54-7.12,7.82,3.37,7.88,7.12,7.88Z"/>
      <path class="cls-2" d="M417.53,89.08l7.44-1.14c1.72-.25,2.29-1.08,2.29-2.16,0-1.84-1.59-3.43-4.64-3.43-3.37,0-5.21,2.29-5.4,4.64l-8.39-1.72c.38-4.51,4.58-10.49,13.86-10.49,10.24,0,13.99,5.72,13.99,12.21v15.45c0,2.48.32,4.58.38,4.9h-8.71c-.06-.25-.32-1.4-.32-3.56-1.65,2.67-4.7,4.45-8.9,4.45-6.93,0-10.94-4.58-10.94-9.6,0-5.59,4.13-8.77,9.35-9.54ZM427.26,94.92v-1.4l-5.98.95c-2.03.32-3.56,1.27-3.56,3.5,0,1.65,1.08,3.24,3.75,3.24,2.86,0,5.79-1.4,5.79-6.29Z"/>
      <path class="cls-2" d="M454.47,107.32h-9.66v-31.6h9.35v3.62c1.72-2.99,5.59-4.45,8.84-4.45,7.95,0,11.51,5.66,11.51,12.59v19.84h-9.66v-18.18c0-3.12-1.65-5.47-5.15-5.47-3.18,0-5.21,2.35-5.21,5.53v18.12Z"/>
      <path class="cls-1" d="M504.28,116.46v-38.73h-14.23v-9.64c8.9-.09,15.24-5.14,16.24-11.2h12.39v59.57h-14.41Z"/>
      <path class="cls-1" d="M535.12,65.71c3.95-5.97,10.55-10.19,20.19-10.19s16.34,4.22,20.28,10.19c4.13,6.24,5.23,13.68,5.23,21.02s-1.1,14.78-5.23,21.02c-3.95,5.87-10.55,10.19-20.28,10.19s-16.24-4.31-20.19-10.19c-4.13-6.24-5.23-13.68-5.23-21.02s1.1-14.78,5.23-21.02ZM546.59,99.66c1.65,3.3,4.31,5.51,8.72,5.51s7.07-2.2,8.72-5.51c1.74-3.49,2.29-8.17,2.29-12.94s-.55-9.45-2.29-12.94c-1.65-3.3-4.22-5.51-8.72-5.51s-7.07,2.2-8.72,5.51c-1.65,3.49-2.2,8.17-2.2,12.94s.55,9.45,2.2,12.94Z"/>
      <path class="cls-1" d="M592.66,65.71c3.95-5.97,10.55-10.19,20.19-10.19s16.34,4.22,20.28,10.19c4.13,6.24,5.23,13.68,5.23,21.02s-1.1,14.78-5.23,21.02c-3.95,5.87-10.55,10.19-20.28,10.19s-16.24-4.31-20.19-10.19c-4.13-6.24-5.23-13.68-5.23-21.02s1.1-14.78,5.23-21.02ZM604.14,99.66c1.65,3.3,4.31,5.51,8.72,5.51s7.07-2.2,8.72-5.51c1.74-3.49,2.29-8.17,2.29-12.94s-.55-9.45-2.29-12.94c-1.65-3.3-4.22-5.51-8.72-5.51s-7.07,2.2-8.72,5.51c-1.65,3.49-2.2,8.17-2.2,12.94s.55,9.45,2.2,12.94Z"/>
      <path class="cls-2" d="M24.41,149.85c0,5.02,3.37,7.82,7.37,7.82,3.75,0,5.85-2.35,6.55-4.7l8.52,2.61c-1.4,5.53-6.61,11-15.07,11-9.41,0-16.98-6.93-16.98-16.72s7.37-16.78,16.66-16.78c8.71,0,13.8,5.34,15.19,11l-8.65,2.61c-.7-2.42-2.61-4.7-6.36-4.7-4.01,0-7.25,2.8-7.25,7.88Z"/>
      <path class="cls-2" d="M72.86,143.55c-1.08-.25-2.1-.32-3.05-.32-3.88,0-7.37,2.29-7.37,8.58v13.8h-9.66v-31.6h9.35v4.26c1.65-3.56,5.66-4.58,8.2-4.58.95,0,1.91.13,2.54.32v9.54Z"/>
      <path class="cls-2" d="M107.06,156.52c-1.53,5.47-6.55,10.05-14.56,10.05-8.71,0-16.47-6.23-16.47-16.85s7.57-16.66,15.77-16.66c9.79,0,15.83,6.04,15.83,16.21,0,1.34-.13,2.8-.19,2.99h-22c.19,3.56,3.43,6.1,7.18,6.1,3.5,0,5.47-1.65,6.36-4.13l8.07,2.29ZM98.29,146.03c-.13-2.42-1.78-5.34-6.36-5.34-4.07,0-6.1,2.99-6.29,5.34h12.65Z"/>
      <path class="cls-2" d="M121.3,147.37l7.44-1.14c1.72-.25,2.29-1.08,2.29-2.16,0-1.84-1.59-3.43-4.64-3.43-3.37,0-5.21,2.29-5.4,4.64l-8.39-1.72c.38-4.51,4.58-10.49,13.86-10.49,10.24,0,13.99,5.72,13.99,12.21v15.45c0,2.48.32,4.58.38,4.9h-8.71c-.06-.25-.32-1.4-.32-3.56-1.65,2.67-4.7,4.45-8.9,4.45-6.93,0-10.94-4.58-10.94-9.6,0-5.59,4.13-8.77,9.35-9.54ZM131.03,153.22v-1.4l-5.98.95c-2.03.32-3.56,1.27-3.56,3.5,0,1.65,1.08,3.24,3.75,3.24,2.86,0,5.79-1.4,5.79-6.29Z"/>
      <path class="cls-2" d="M159.83,134.02h6.17v8.46h-6.17v11.83c0,2.61,1.4,3.31,3.5,3.31,1.02,0,1.97-.19,2.54-.32v8.01c-.38.19-1.97.89-5.02.89-6.55,0-10.55-3.88-10.55-10.17v-13.54h-5.59v-8.46h1.59c3.31,0,4.9-2.23,4.9-5.15v-4.07h8.65v9.22Z"/>
      <path class="cls-2" d="M177.63,118.69c3.18,0,5.72,2.54,5.72,5.66s-2.54,5.66-5.72,5.66-5.59-2.54-5.59-5.66,2.54-5.66,5.59-5.66ZM172.86,165.61v-31.6h9.66v31.6h-9.66Z"/>
      <path class="cls-2" d="M219.72,156.52c-1.53,5.47-6.55,10.05-14.56,10.05-8.71,0-16.47-6.23-16.47-16.85s7.57-16.66,15.77-16.66c9.79,0,15.83,6.04,15.83,16.21,0,1.34-.13,2.8-.19,2.99h-22c.19,3.56,3.43,6.1,7.18,6.1,3.5,0,5.47-1.65,6.36-4.13l8.07,2.29ZM210.94,146.03c-.13-2.42-1.78-5.34-6.36-5.34-4.07,0-6.1,2.99-6.29,5.34h12.65Z"/>
      <path class="cls-2" d="M244.96,165.61h-9.73l-12.97-31.6h10.49l7.31,19.65,6.74-19.65h10.17l-12.02,31.6Z"/>
      <path class="cls-2" d="M289.65,156.52c-1.53,5.47-6.55,10.05-14.56,10.05-8.71,0-16.47-6.23-16.47-16.85s7.57-16.66,15.77-16.66c9.79,0,15.83,6.04,15.83,16.21,0,1.34-.13,2.8-.19,2.99h-22c.19,3.56,3.43,6.1,7.18,6.1,3.5,0,5.47-1.65,6.36-4.13l8.07,2.29ZM280.88,146.03c-.13-2.42-1.78-5.34-6.36-5.34-4.07,0-6.1,2.99-6.29,5.34h12.65Z"/>
      <path class="cls-2" d="M343.37,149.78c0,9.79-7.31,16.78-16.78,16.78s-16.78-6.99-16.78-16.78,7.37-16.72,16.78-16.72,16.78,6.93,16.78,16.72ZM333.71,149.78c0-5.34-3.43-7.82-7.12-7.82s-7.12,2.48-7.12,7.82,3.5,7.88,7.12,7.88,7.12-2.54,7.12-7.88Z"/>
      <path class="cls-2" d="M359.27,165.61h-9.66v-31.6h9.35v3.62c1.72-2.99,5.59-4.45,8.84-4.45,7.95,0,11.51,5.66,11.51,12.59v19.84h-9.66v-18.18c0-3.12-1.65-5.47-5.15-5.47-3.18,0-5.21,2.35-5.21,5.53v18.12Z"/>
      <path class="cls-2" d="M418.52,159.96c0,2.86.19,4.96.25,5.66h-9.28c-.06-.38-.25-1.78-.25-3.05-1.46,2.16-4.64,3.75-8.46,3.75-8.9,0-15.64-6.87-15.64-16.59s6.36-16.47,15.32-16.47c5.4,0,7.76,2.03,8.52,3.24v-16.91h9.54v40.37ZM401.99,157.67c3.75,0,7.12-2.67,7.12-7.88s-3.37-7.82-7.12-7.82-7.12,2.54-7.12,7.82,3.37,7.88,7.12,7.88Z"/>
      <path class="cls-2" d="M455.96,156.52c-1.53,5.47-6.55,10.05-14.56,10.05-8.71,0-16.47-6.23-16.47-16.85s7.57-16.66,15.77-16.66c9.79,0,15.83,6.04,15.83,16.21,0,1.34-.13,2.8-.19,2.99h-22c.19,3.56,3.43,6.1,7.18,6.1,3.5,0,5.47-1.65,6.36-4.13l8.07,2.29ZM447.19,146.03c-.13-2.42-1.78-5.34-6.36-5.34-4.07,0-6.1,2.99-6.29,5.34h12.65Z"/>
      <path class="cls-2" d="M482.86,143.55c-1.08-.25-2.1-.32-3.05-.32-3.88,0-7.38,2.29-7.38,8.58v13.8h-9.66v-31.6h9.35v4.26c1.65-3.56,5.66-4.58,8.2-4.58.95,0,1.91.13,2.54.32v9.54Z"/>
      <path class="cls-2" d="M498.37,165.61h-9.66v-31.6h9.35v3.62c1.72-2.99,5.59-4.45,8.84-4.45,7.95,0,11.51,5.66,11.51,12.59v19.84h-9.66v-18.18c0-3.12-1.65-5.47-5.15-5.47-3.18,0-5.21,2.35-5.21,5.53v18.12Z"/>
      <path class="cls-2" d="M555.27,156.52c-1.53,5.47-6.55,10.05-14.56,10.05-8.71,0-16.47-6.23-16.47-16.85s7.57-16.66,15.77-16.66c9.79,0,15.83,6.04,15.83,16.21,0,1.34-.13,2.8-.19,2.99h-22c.19,3.56,3.43,6.1,7.18,6.1,3.5,0,5.47-1.65,6.36-4.13l8.07,2.29ZM546.5,146.03c-.13-2.42-1.78-5.34-6.36-5.34-4.07,0-6.1,2.99-6.29,5.34h12.65Z"/>
      <path class="cls-2" d="M562.07,165.61v-31.6h9.22v3.62c1.59-2.8,5.66-4.58,9.09-4.58,4.51,0,7.76,1.84,9.35,4.96,2.48-3.56,5.53-4.96,9.79-4.96,5.98,0,11.7,3.5,11.7,12.08v20.47h-9.35v-18.31c0-2.99-1.59-5.34-5.02-5.34s-5.28,2.61-5.28,5.4v18.25h-9.54v-18.31c0-2.99-1.59-5.34-5.09-5.34s-5.21,2.61-5.21,5.47v18.18h-9.66Z"/>
      <path class="cls-2" d="M648.09,156.52c-1.53,5.47-6.55,10.05-14.56,10.05-8.71,0-16.47-6.23-16.47-16.85s7.57-16.66,15.77-16.66c9.79,0,15.83,6.04,15.83,16.21,0,1.34-.13,2.8-.19,2.99h-22c.19,3.56,3.43,6.1,7.18,6.1,3.5,0,5.47-1.65,6.36-4.13l8.07,2.29ZM639.32,146.03c-.13-2.42-1.78-5.34-6.36-5.34-4.07,0-6.1,2.99-6.29,5.34h12.65Z"/>
      <path class="cls-2" d="M674.98,143.55c-1.08-.25-2.1-.32-3.05-.32-3.88,0-7.38,2.29-7.38,8.58v13.8h-9.66v-31.6h9.35v4.26c1.65-3.56,5.66-4.58,8.2-4.58.95,0,1.91.13,2.54.32v9.54Z"/>
      <path class="cls-2" d="M686.68,155.19c.13,2.16,1.65,4.26,4.96,4.26,2.48,0,3.69-1.34,3.69-2.73,0-1.14-.76-2.1-3.12-2.61l-3.62-.83c-6.74-1.46-9.41-5.28-9.41-9.73,0-5.79,5.09-10.49,12.14-10.49,9.15,0,12.33,5.72,12.65,9.41l-8.01,1.46c-.25-2.1-1.59-3.88-4.51-3.88-1.84,0-3.43,1.08-3.43,2.73,0,1.34,1.08,2.1,2.48,2.35l4.2.83c6.55,1.34,9.73,5.28,9.73,9.92,0,5.4-4.13,10.68-12.59,10.68-9.92,0-13.1-6.42-13.35-9.92l8.2-1.46Z"/>
    </g>
  </g>
</svg>