<?xml version="1.0" encoding="utf-8"?>
<!-- Generator: Adobe Illustrator 28.0.0, SVG Export Plug-In . SVG Version: 6.00 Build 0)  -->
<svg version="1.1" id="Laag_2_00000048502260603089491930000002916257116013347724_"
	 xmlns="http://www.w3.org/2000/svg" xmlns:xlink="http://www.w3.org/1999/xlink" x="0px" y="0px" viewBox="0 0 377.2 148.1"
	 style="enable-background:new 0 0 377.2 148.1;" xml:space="preserve">
<style type="text/css">
	.st0{fill:#BCEA91;}
	.st1{fill:none;stroke:#BCEA91;stroke-width:7;stroke-miterlimit:10;}
</style>
<g>
	<path class="st0" d="M25.1,69.8l34.3-30.6H3.8V23.6h78.9v15.3L49.5,68.6c17,0,35.9,11.1,35.9,34.2c0,18.9-15.1,36.1-42.2,36.1
		c-26.9,0-42.2-17-43.2-35.4l17.2-3.8c0.7,14.9,11.8,24.3,25.8,24.3c16,0,24.6-9.6,24.6-20.8c0-14.8-12.2-21-23.7-21
		c-3.6,0-7.2,0.7-10.2,1.7L25.1,69.8z"/>
	<path class="st0" d="M181.4,41.2c-4.3-2.4-12-4.9-20.8-4.9c-24.2,0-39.5,17.2-40.9,40.3c4.7-7.5,15.2-14.6,30.7-14.6
		c23,0,39.8,13.9,39.8,38.4c0,24.1-20.3,38.4-43.1,38.4c-22.2,0-45.4-14.9-45.4-52.1c0-41.9,26-65.6,59.9-65.6
		c10.6,0,19.7,2.6,25.1,6.3L181.4,41.2z M147.3,124c13.6,0,25.1-8.7,25.1-23.6c0-15.1-11.7-23.8-25.1-23.8
		c-13.5,0-25.1,8.7-25.1,23.8C122.2,115.2,134.5,124,147.3,124z"/>
	<path class="st0" d="M216,39.1c7.5-10.9,19.2-18.1,35.7-18.1s28.2,7.1,35.7,18.1c7.7,11.1,10.4,25.4,10.4,40.8s-2.7,29.7-10.4,40.8
		c-7.5,10.9-19.2,18.1-35.7,18.1s-28.2-7.1-35.7-18.1c-7.7-11.1-10.4-25.4-10.4-40.8S208.3,50.2,216,39.1z M233.2,116.4
		c4.5,4.5,10.2,7.3,18.5,7.3s14-2.8,18.5-7.3c7-7.1,10.2-19.3,10.2-36.5s-3.2-29.3-10.2-36.5c-4.5-4.5-10.2-7.3-18.5-7.3
		s-14,2.8-18.5,7.3c-7,7.1-10.2,19.3-10.2,36.5S226.2,109.3,233.2,116.4z"/>
</g>
<g>
	<path class="st1" d="M297.7,10.6c3.7,0,6.6,2.9,6.6,6.6s-2.9,6.5-6.6,6.5s-6.5-2.8-6.5-6.5S294.1,10.6,297.7,10.6z"/>
</g>
</svg>
