<?xml version="1.0" encoding="utf-8"?>
<!-- Generator: Adobe Illustrator 28.0.0, SVG Export Plug-In . SVG Version: 6.00 Build 0)  -->
<svg version="1.1" id="Laag_2_00000048502260603089491930000002916257116013347724_"
	 xmlns="http://www.w3.org/2000/svg" xmlns:xlink="http://www.w3.org/1999/xlink" x="0px" y="0px" viewBox="0 0 377.2 148.1"
	 style="enable-background:new 0 0 377.2 148.1;" xml:space="preserve">
<style type="text/css">
	.st0{fill:#BCEA91;}
</style>
<g>
	<path class="st0" d="M254.8,26.1l10.2,32l8.8-32h15.7L273.3,80h-15.9L246,45.2L234.8,80h-16.3L202,26.1h16.7l8.8,31.9l10.3-31.9
		H254.8z"/>
	<path class="st0" d="M305.7,0c5.3,0,9.5,4.3,9.5,9.6s-4.2,9.6-9.5,9.6c-5.1,0-9.3-4.3-9.3-9.6S300.7,0,305.7,0z M297.8,80V26.1h16
		V80H297.8z"/>
	<path class="st0" d="M343.9,80h-16V26.1h15.5v6.2c2.9-5.1,9.3-7.6,14.7-7.6c13.2,0,19.1,9.6,19.1,21.5V80h-16V49
		c0-5.3-2.7-9.3-8.6-9.3c-5.3,0-8.7,4-8.7,9.4V80z"/>
</g>
<g>
	<path class="st0" d="M69.6,101.5h4.9v28.5c0,4.6-2.6,7.9-6.9,7.9c-1.9,0-2.6-0.3-2.9-0.4v-4.2c0.3,0.1,0.8,0.2,1.6,0.2
		c2.5,0,3.4-1.4,3.4-3.7V101.5z M71.9,88.1c2,0,3.5,1.6,3.5,3.6c0,2-1.6,3.6-3.5,3.6c-1.9,0-3.5-1.6-3.5-3.6
		C68.5,89.7,70,88.1,71.9,88.1z"/>
	<path class="st0" d="M116.8,119.8c-1.4,4.5-5.4,8.1-11.2,8.1c-6.7,0-12.5-5-12.5-13.7c0-8,5.6-13.5,11.9-13.5c7.7,0,12,5.4,12,13.4
		c0,0.6-0.1,1.3-0.1,1.6H98.1c0.1,4.6,3.3,7.8,7.5,7.8c4,0,6.1-2.3,7-5.2L116.8,119.8z M111.9,111.7c-0.1-3.7-2.4-6.5-6.8-6.5
		c-4.1,0-6.6,3.2-6.8,6.5H111.9z"/>
	<path class="st0" d="M167,112.5l6.7-1c1.5-0.2,1.9-1,1.9-1.9c0-2.5-1.6-4.6-5.4-4.6c-3.4,0-5.3,2.2-5.6,5.2L160,109
		c0.5-4.9,4.8-8.3,10.2-8.3c7.5,0,10.4,4.4,10.4,9.4v12.8c0,2.2,0.2,3.6,0.3,4.2h-4.8c-0.1-0.6-0.3-1.6-0.3-3.5
		c-1.1,1.8-3.6,4.3-8,4.3c-5.1,0-8.3-3.6-8.3-7.7C159.5,115.7,162.7,113.1,167,112.5z M175.7,116.2V115l-7.6,1.2
		c-2.1,0.3-3.6,1.5-3.6,3.8c0,1.9,1.6,3.7,4,3.7C172.5,123.7,175.7,121.7,175.7,116.2z"/>
	<path class="st0" d="M207.1,101.5h5.4v4.5h-5.4v13.3c0,2.3,0.9,3.5,3.5,3.5c0.6,0,1.5-0.1,1.9-0.2v4.3c-0.4,0.2-1.7,0.5-3.3,0.5
		c-4.2,0-6.9-2.7-6.9-7.3v-14h-4.8v-4.5h1.3c2.7,0,3.8-1.7,3.8-3.9v-4.1h4.5V101.5z"/>
	<path class="st0" d="M252.8,119.8c-1.4,4.5-5.4,8.1-11.2,8.1c-6.7,0-12.5-5-12.5-13.7c0-8,5.6-13.5,11.9-13.5c7.7,0,12,5.4,12,13.4
		c0,0.6-0.1,1.3-0.1,1.6h-18.8c0.1,4.6,3.3,7.8,7.5,7.8c4,0,6.1-2.3,7-5.2L252.8,119.8z M247.9,111.7c-0.1-3.7-2.4-6.5-6.8-6.5
		c-4.1,0-6.6,3.2-6.8,6.5H247.9z"/>
	<path class="st0" d="M271.6,127.1V88.6h4.9v38.5H271.6z"/>
	<path class="st0" d="M299.6,88.2c2,0,3.5,1.6,3.5,3.6c0,2-1.6,3.6-3.5,3.6c-1.9,0-3.5-1.6-3.5-3.6
		C296.1,89.8,297.7,88.2,299.6,88.2z M297.2,127.1v-25.6h4.8v25.6H297.2z"/>
	<path class="st0" d="M344.5,119.8c-1.4,4.5-5.4,8.1-11.2,8.1c-6.7,0-12.5-5-12.5-13.7c0-8,5.6-13.5,11.9-13.5c7.7,0,12,5.4,12,13.4
		c0,0.6-0.1,1.3-0.1,1.6h-18.8c0.1,4.6,3.3,7.8,7.5,7.8c4,0,6.1-2.3,7-5.2L344.5,119.8z M339.5,111.7c-0.1-3.7-2.4-6.5-6.8-6.5
		c-4.1,0-6.6,3.2-6.8,6.5H339.5z"/>
	<path class="st0" d="M377.1,106.6c-0.7-0.1-1.5-0.2-2.1-0.2c-4.1,0-6.8,2.2-6.8,7.9v12.8h-4.9v-25.6h4.8v4.5
		c1.8-3.9,4.9-4.9,7.5-4.9c0.7,0,1.3,0.1,1.6,0.2V106.6z"/>
</g>
</svg>
